<svg xmlns="http://www.w3.org/2000/svg" width="453" height="124" fill="none" viewBox="0 0 453 124"><rect width="453" height="124" fill="#161b22" rx="10"/><path fill="#9198a1" d="M89.42 85v-8.52h-3.36V74.5h9.15v1.98h-3.36V85zm7.47 3.03q-.63 0-1.246-.195-.615-.195-1.005-.54l.855-1.665a2.03 2.03 0 0 0 1.32.51q.495 0 .78-.24.3-.225.54-.765l.42-.99.18-.255 2.895-6.96h2.25l-3.645 8.565q-.39.975-.9 1.53-.495.555-1.11.78-.6.225-1.335.225m1.38-2.715-3.6-8.385h2.414l2.79 6.75zm11.334-.195q-1.02 0-1.785-.45t-1.2-1.365q-.42-.93-.42-2.34 0-1.425.405-2.34t1.17-1.365 1.83-.45q1.14 0 2.04.525.915.51 1.44 1.44.54.93.54 2.19 0 1.275-.54 2.205-.525.93-1.44 1.44-.9.51-2.04.51m-4.77 2.79V76.93h2.235v1.65l-.045 2.4.15 2.385v4.545zm4.365-4.71q.585 0 1.035-.27.465-.27.735-.765.285-.51.285-1.2 0-.705-.285-1.2a1.94 1.94 0 0 0-.735-.765q-.45-.27-1.035-.27t-1.05.27-.735.765-.27 1.2q0 .69.27 1.2.27.495.735.765t1.05.27m9.996 1.92q-1.38 0-2.43-.54-1.035-.54-1.605-1.47-.57-.945-.57-2.145 0-1.215.555-2.145a3.97 3.97 0 0 1 1.545-1.47q.975-.54 2.205-.54 1.185 0 2.13.51.96.495 1.515 1.44.555.93.555 2.235 0 .135-.015.315l-.03.315h-6.555V80.26h5.325l-.9.405q0-.63-.255-1.095a1.8 1.8 0 0 0-.705-.72q-.45-.27-1.05-.27t-1.065.27q-.45.255-.705.735-.255.465-.255 1.11v.36q0 .66.285 1.17.3.495.825.765.54.255 1.26.255.645 0 1.125-.195.495-.195.9-.585l1.245 1.35q-.555.63-1.395.975-.84.33-1.935.33m8.173 0q-1.035 0-1.995-.24-.945-.255-1.5-.63l.78-1.68q.555.345 1.305.57.765.21 1.5.21.81 0 1.14-.195.345-.195.345-.54 0-.285-.27-.42-.255-.15-.69-.225t-.96-.15q-.51-.075-1.035-.195-.525-.135-.96-.39t-.705-.69q-.255-.435-.255-1.125 0-.765.435-1.35.45-.585 1.29-.915.84-.345 2.01-.345.825 0 1.68.18t1.425.525l-.78 1.665a3.8 3.8 0 0 0-1.185-.465q-.585-.135-1.14-.135-.78 0-1.14.21t-.36.54q0 .3.255.45.27.15.705.24t.945.165q.525.06 1.05.195t.945.39q.435.24.705.675.27.42.27 1.11 0 .75-.45 1.335-.45.57-1.305.9-.84.33-2.055.33m9.154 0q-1.305 0-2.325-.525a4.1 4.1 0 0 1-1.605-1.485q-.57-.945-.57-2.145 0-1.215.57-2.145a4 4 0 0 1 1.605-1.47q1.02-.54 2.325-.54 1.275 0 2.22.54.945.525 1.395 1.515l-1.815.975q-.315-.57-.795-.84-.465-.27-1.02-.27-.6 0-1.08.27t-.765.765q-.27.495-.27 1.2t.27 1.2q.285.495.765.765t1.08.27q.555 0 1.02-.255.48-.27.795-.855l1.815.99q-.45.975-1.395 1.515-.945.525-2.22.525m4.962-.12v-8.07h2.235v2.28l-.315-.66q.36-.855 1.155-1.29.795-.45 1.935-.45v2.16a3 3 0 0 0-.27-.015 2 2 0 0 0-.255-.015q-.96 0-1.56.555-.585.54-.585 1.695V85zm6.416 0v-8.07h2.34V85zm1.17-9.195q-.645 0-1.05-.375t-.405-.93.405-.93 1.05-.375 1.05.36q.405.345.405.9 0 .585-.405.975-.39.375-1.05.375m8.112 9.315q-1.02 0-1.785-.45t-1.2-1.365q-.42-.93-.42-2.34 0-1.425.405-2.34t1.17-1.365 1.83-.45q1.14 0 2.04.525.915.51 1.44 1.44.54.93.54 2.19 0 1.275-.54 2.205-.525.93-1.44 1.44-.9.51-2.04.51m-4.77 2.79V76.93h2.235v1.65l-.045 2.4.15 2.385v4.545zm4.365-4.71q.585 0 1.035-.27.465-.27.735-.765.285-.51.285-1.2 0-.705-.285-1.2a1.94 1.94 0 0 0-.735-.765q-.45-.27-1.035-.27t-1.05.27-.735.765-.27 1.2q0 .69.27 1.2.27.495.735.765t1.05.27m9.291 1.92q-1.425 0-2.22-.72-.795-.735-.795-2.175v-7.08h2.34v7.05q0 .51.27.795.27.27.735.27.555 0 .945-.3l.63 1.65q-.36.255-.87.39-.495.12-1.035.12m-4.26-6.21v-1.8h5.595v1.8zm5.904 7.59 4.95-14.13h2.085l-4.95 14.13zm7.614-1.5V74.5h4.545q1.41 0 2.43.465 1.02.45 1.575 1.305t.555 2.04q0 1.17-.555 2.025-.555.84-1.575 1.29t-2.43.45h-3.195l1.08-1.065V85zm6.675 0-2.625-3.81h2.595l2.655 3.81zm-4.245-3.72-1.08-1.14h3.06q1.125 0 1.68-.48.555-.495.555-1.35 0-.87-.555-1.35t-1.68-.48h-3.06l1.08-1.155zm12.44 3.84q-1.38 0-2.43-.54-1.035-.54-1.605-1.47-.57-.945-.57-2.145 0-1.215.555-2.145a3.97 3.97 0 0 1 1.545-1.47q.975-.54 2.205-.54 1.185 0 2.13.51.96.495 1.515 1.44.555.93.555 2.235 0 .135-.015.315l-.03.315h-6.555V80.26h5.325l-.9.405q0-.63-.255-1.095a1.8 1.8 0 0 0-.705-.72q-.45-.27-1.05-.27t-1.065.27q-.45.255-.705.735-.255.465-.255 1.11v.36q0 .66.285 1.17.3.495.825.765.54.255 1.26.255.645 0 1.125-.195.495-.195.9-.585l1.245 1.35q-.555.63-1.395.975-.84.33-1.935.33m10.188-.12v-1.575l-.15-.345v-2.82q0-.75-.465-1.17-.45-.42-1.395-.42-.645 0-1.275.21-.615.195-1.05.54l-.84-1.635q.66-.465 1.59-.72t1.89-.255q1.845 0 2.865.87t1.02 2.715V85zm-2.46.12q-.945 0-1.62-.315-.675-.33-1.035-.885t-.36-1.245q0-.72.345-1.26.36-.54 1.125-.84.765-.315 1.995-.315h2.145v1.365h-1.89q-.825 0-1.14.27a.87.87 0 0 0-.3.675q0 .45.345.72.36.255.975.255.585 0 1.05-.27.465-.285.675-.825l.36 1.08q-.255.78-.93 1.185t-1.74.405m10.727 0q-1.305 0-2.325-.525a4.1 4.1 0 0 1-1.605-1.485q-.57-.945-.57-2.145 0-1.215.57-2.145a4 4 0 0 1 1.605-1.47q1.02-.54 2.325-.54 1.275 0 2.22.54.945.525 1.395 1.515l-1.815.975q-.315-.57-.795-.84-.465-.27-1.02-.27-.6 0-1.08.27t-.765.765q-.27.495-.27 1.2t.27 1.2q.285.495.765.765t1.08.27q.555 0 1.02-.255.48-.27.795-.855l1.815.99q-.45.975-1.395 1.515-.945.525-2.22.525m8.379 0q-1.425 0-2.22-.72-.795-.735-.795-2.175v-7.08h2.34v7.05q0 .51.27.795.27.27.735.27.555 0 .945-.3l.63 1.65q-.36.255-.87.39-.495.12-1.035.12m-4.26-6.21v-1.8h5.595v1.8zM224.662 85V74.5h2.43v8.52h5.265V85zm8.888 0v-8.07h2.34V85zm1.17-9.195q-.645 0-1.05-.375t-.405-.93.405-.93 1.05-.375 1.05.36q.405.345.405.9 0 .585-.405.975-.39.375-1.05.375m8.111 9.315q-1.065 0-1.83-.45t-1.17-1.365q-.405-.93-.405-2.34 0-1.425.42-2.34.435-.915 1.2-1.365t1.785-.45q1.14 0 2.04.51.915.51 1.44 1.44.54.93.54 2.205 0 1.26-.54 2.19-.525.93-1.44 1.455-.9.51-2.04.51m-4.77-.12V73.87h2.34v4.695l-.15 2.385.045 2.4V85zm4.365-1.8q.585 0 1.035-.27.465-.27.735-.765.285-.51.285-1.2 0-.705-.285-1.2a1.94 1.94 0 0 0-.735-.765q-.45-.27-1.035-.27t-1.05.27-.735.765-.27 1.2q0 .69.27 1.2.27.495.735.765t1.05.27m5.992 1.8v-8.07h2.235v2.28l-.315-.66q.36-.855 1.155-1.29.795-.45 1.935-.45v2.16a3 3 0 0 0-.27-.015 2 2 0 0 0-.255-.015q-.96 0-1.56.555-.585.54-.585 1.695V85zm10.824 0v-1.575l-.15-.345v-2.82q0-.75-.465-1.17-.45-.42-1.395-.42-.645 0-1.275.21-.615.195-1.05.54l-.84-1.635q.66-.465 1.59-.72t1.89-.255q1.845 0 2.865.87t1.02 2.715V85zm-2.46.12q-.945 0-1.62-.315-.675-.33-1.035-.885t-.36-1.245q0-.72.345-1.26.36-.54 1.125-.84.765-.315 1.995-.315h2.145v1.365h-1.89q-.825 0-1.14.27a.87.87 0 0 0-.3.675q0 .45.345.72.36.255.975.255.585 0 1.05-.27.465-.285.675-.825l.36 1.08q-.255.78-.93 1.185t-1.74.405m6.768-.12v-8.07h2.235v2.28l-.315-.66q.36-.855 1.155-1.29.795-.45 1.935-.45v2.16a3 3 0 0 0-.27-.015 2 2 0 0 0-.255-.015q-.96 0-1.56.555-.585.54-.585 1.695V85zm7.699 3.03q-.63 0-1.245-.195t-1.005-.54l.855-1.665a2.03 2.03 0 0 0 1.32.51q.495 0 .78-.24.3-.225.54-.765l.42-.99.18-.255 2.895-6.96h2.25l-3.645 8.565q-.39.975-.9 1.53-.495.555-1.11.78-.6.225-1.335.225m1.38-2.715-3.6-8.385h2.415l2.79 6.75zM283.727 85v-8.25q0-1.365.81-2.175.81-.825 2.31-.825.51 0 .975.105.48.105.81.33l-.615 1.695q-.195-.135-.435-.21a1.7 1.7 0 0 0-.51-.075q-.51 0-.795.3-.27.285-.27.87v.75l.06 1.005V85zm-1.245-6.09v-1.8h5.595v1.8zm10.499 6.21q-1.29 0-2.295-.54a4.2 4.2 0 0 1-1.575-1.47q-.57-.945-.57-2.145 0-1.215.57-2.145.585-.945 1.575-1.47 1.005-.54 2.295-.54 1.275 0 2.28.54 1.005.525 1.575 1.455t.57 2.16q0 1.2-.57 2.145a4.06 4.06 0 0 1-1.575 1.47q-1.005.54-2.28.54m0-1.92q.585 0 1.05-.27t.735-.765q.27-.51.27-1.2 0-.705-.27-1.2a1.94 1.94 0 0 0-.735-.765q-.465-.27-1.05-.27t-1.05.27-.75.765q-.27.495-.27 1.2 0 .69.27 1.2.285.495.75.765t1.05.27m5.989 1.8v-8.07h2.235v2.28l-.315-.66q.36-.855 1.155-1.29.795-.45 1.935-.45v2.16a3 3 0 0 0-.27-.015 2 2 0 0 0-.255-.015q-.96 0-1.56.555-.585.54-.585 1.695V85zm9.493 0 4.68-10.5h2.4l4.695 10.5h-2.55l-3.84-9.27h.96L310.953 85zm2.34-2.25.645-1.845h5.4l.66 1.845zM321.327 85V74.5h2.43V85zm14.195.18q-1.215 0-2.265-.39-1.035-.405-1.8-1.14a5.4 5.4 0 0 1-1.2-1.725 5.5 5.5 0 0 1-.42-2.175q0-1.185.42-2.175.435-.99 1.2-1.725a5.4 5.4 0 0 1 1.815-1.125 6.2 6.2 0 0 1 2.265-.405q1.365 0 2.46.48 1.11.465 1.86 1.38l-1.56 1.44a3.6 3.6 0 0 0-1.2-.915 3.3 3.3 0 0 0-1.44-.315q-.735 0-1.35.24t-1.065.69-.705 1.065q-.24.615-.24 1.365t.24 1.365q.255.615.705 1.065t1.065.69 1.35.24q.78 0 1.44-.3.66-.315 1.2-.945l1.56 1.44q-.75.915-1.86 1.395-1.095.48-2.475.48m10.716-8.37q.96 0 1.71.39.765.375 1.2 1.17.435.78.435 2.01V85h-2.34v-4.26q0-.975-.435-1.44-.42-.465-1.2-.465-.555 0-1.005.24-.435.225-.69.705-.24.48-.24 1.23V85h-2.34V73.87h2.34v5.295l-.525-.675q.435-.81 1.245-1.245t1.845-.435M356.654 85v-1.575l-.15-.345v-2.82q0-.75-.465-1.17-.45-.42-1.395-.42-.645 0-1.275.21-.615.195-1.05.54l-.84-1.635q.66-.465 1.59-.72t1.89-.255q1.845 0 2.865.87t1.02 2.715V85zm-2.46.12q-.945 0-1.62-.315-.675-.33-1.035-.885t-.36-1.245q0-.72.345-1.26.36-.54 1.125-.84.765-.315 1.995-.315h2.145v1.365h-1.89q-.825 0-1.14.27a.87.87 0 0 0-.3.675q0 .45.345.72.36.255.975.255.585 0 1.05-.27.465-.285.675-.825l.36 1.08q-.255.78-.93 1.185t-1.74.405m10.068 0q-1.425 0-2.22-.72-.795-.735-.795-2.175v-7.08h2.34v7.05q0 .51.27.795.27.27.735.27.555 0 .945-.3l.63 1.65q-.36.255-.87.39-.495.12-1.035.12m-4.26-6.21v-1.8h5.595v1.8z"/><g stroke="#fff" stroke-linecap="round" stroke-linejoin="round" stroke-width="3" clip-path="url(#a)"><path d="M165 47a2 2 0 0 1-2 2h-6l-4 4V42c0-1.1.9-2 2-2h8a2 2 0 0 1 2 2zM169 47h2a2 2 0 0 1 2 2v11l-4-4h-6a2 2 0 0 1-2-2v-1"/></g><path fill="#fff" d="M185 49.64q.32-1.66 1.54-2.56 1.24-.92 3.2-.92 2.28 0 3.46 1.16 1.2 1.16 1.2 3.4v3.64q0 .44.16.62.18.16.5.16h.42V57l-.6.02h-.22q-.92.04-1.64-.28-.72-.34-.84-1.36-.4.84-1.32 1.36-.9.5-2.22.5-1.64 0-2.74-.82-1.08-.82-1.08-2.2 0-1 .46-1.62.48-.62 1.34-.96.86-.36 2.24-.64l2.96-.58q0-1.24-.52-1.82-.52-.6-1.56-.6-.86 0-1.4.46-.54.44-.72 1.32zm2.48 4.5q0 .58.48.94t1.38.36q.74 0 1.3-.36.58-.36.9-1.06.34-.72.34-1.72v-.14l-2.02.36q-.14.02-.3.04-.72.14-1.16.3a1.44 1.44 0 0 0-.68.46q-.24.3-.24.82m16.114-4.34a1.9 1.9 0 0 0-.76-1.24 2.23 2.23 0 0 0-1.4-.48q-.76 0-1.28.38a1.14 1.14 0 0 0-.48 1q.02.6.6.92t1.54.5q1.54.26 2.5.64.98.38 1.48 1.02.52.64.52 1.62 0 1.02-.6 1.72-.6.68-1.62 1.02t-2.3.34q-1.44 0-2.56-.42-1.1-.44-1.76-1.26a3.45 3.45 0 0 1-.72-1.92l2.62-.14q.1.56.4.96t.8.62 1.16.22q.78 0 1.36-.3t.56-.9q0-.42-.26-.68-.24-.26-.62-.38a7 7 0 0 0-.98-.28 5 5 0 0 0-.4-.08q-1.48-.3-2.4-.66t-1.46-.96q-.52-.62-.52-1.56 0-1.04.54-1.78.56-.76 1.58-1.16 1.04-.4 2.44-.4 1.88 0 3.1.94 1.24.94 1.52 2.58zm11.191 0a1.9 1.9 0 0 0-.76-1.24q-.62-.48-1.4-.48-.76 0-1.28.38a1.15 1.15 0 0 0-.48 1q.02.6.6.92t1.54.5q1.54.26 2.5.64.98.38 1.48 1.02.52.64.52 1.62 0 1.02-.6 1.72-.6.68-1.62 1.02t-2.3.34q-1.44 0-2.56-.42-1.1-.44-1.76-1.26a3.45 3.45 0 0 1-.72-1.92l2.62-.14q.1.56.4.96t.8.62 1.16.22q.78 0 1.36-.3t.56-.9q0-.42-.26-.68-.24-.26-.62-.38a7 7 0 0 0-.98-.28 5 5 0 0 0-.4-.08q-1.48-.3-2.4-.66t-1.46-.96q-.52-.62-.52-1.56 0-1.04.54-1.78.56-.76 1.58-1.16 1.04-.4 2.44-.4 1.88 0 3.1.94 1.24.94 1.52 2.58zm7.179-3.4V57h-2.56V46.4zm.06-3.58v2.12h-2.66v-2.12zm8.952 6.98a1.9 1.9 0 0 0-.76-1.24q-.62-.48-1.4-.48-.76 0-1.28.38a1.15 1.15 0 0 0-.48 1q.021.6.6.92.58.32 1.54.5 1.54.26 2.5.64.98.38 1.48 1.02.52.64.52 1.62 0 1.02-.6 1.72-.6.68-1.62 1.02t-2.3.34q-1.44 0-2.56-.42-1.1-.44-1.76-1.26a3.46 3.46 0 0 1-.72-1.92l2.62-.14q.1.56.4.96t.8.62 1.16.22q.78 0 1.36-.3t.56-.9q0-.42-.26-.68-.24-.26-.62-.38a7 7 0 0 0-.98-.28 5 5 0 0 0-.4-.08q-1.479-.3-2.4-.66t-1.46-.96q-.52-.62-.52-1.56 0-1.04.54-1.78.56-.76 1.58-1.16 1.04-.4 2.44-.4 1.88 0 3.1.94 1.24.94 1.52 2.58zm8.125-5.8v9.74q0 .62.3.96.32.32.9.32h1.6V57h-2.02q-1.64 0-2.5-.82-.84-.82-.84-2.44V44zm2.8 2.4v1.98h-7.04V46.4zm1.654 3.24q.32-1.66 1.54-2.56 1.24-.92 3.2-.92 2.28 0 3.46 1.16 1.2 1.16 1.2 3.4v3.64q0 .44.16.62.18.16.5.16h.42V57l-.6.02h-.22q-.92.04-1.64-.28-.72-.34-.84-1.36-.4.84-1.32 1.36-.9.5-2.22.5-1.64 0-2.74-.82-1.08-.82-1.08-2.2 0-1 .46-1.62.48-.62 1.34-.96.86-.36 2.24-.64l2.96-.58q0-1.24-.52-1.82-.52-.6-1.56-.6-.86 0-1.4.46-.54.44-.72 1.32zm2.48 4.5q0 .58.48.94t1.38.36q.74 0 1.3-.36.579-.36.9-1.06.34-.72.34-1.72v-.14l-2.02.36q-.141.02-.3.04-.72.14-1.16.3a1.44 1.44 0 0 0-.68.46q-.24.3-.24.82m12.212-7.74.12 2.98-.32-.16q.22-1.58 1.14-2.32.94-.74 2.32-.74 1.72 0 2.68 1.1.96 1.08.96 2.92V57h-2.58v-6q0-1.4-.42-2.08t-1.42-.68q-1.06 0-1.66.72-.58.7-.58 2.04v6h-2.56V46.4zm13.041-2.4v9.74q0 .62.3.96.321.32.9.32h1.6V57h-2.02q-1.64 0-2.5-.82-.84-.82-.84-2.44V44zm2.8 2.4v1.98h-7.04V46.4zm8.274 3.68v2.16h-6.8v-2.16zM291.34 57l-.06-2.92.32.16q-.24 1.56-1.16 2.28-.921.72-2.28.72-1.68 0-2.64-1.1-.94-1.1-.94-2.92V46.4h2.56v5.98q0 1.42.42 2.1t1.4.68q1.04 0 1.6-.7.58-.72.58-2.08V46.4h2.56V57zm7.518-10.6V57h-2.56V46.4zm.06-3.58v2.12h-2.66v-2.12z"/><defs><clipPath id="a"><path fill="#161b22" d="M151 38h24v24h-24z"/></clipPath></defs></svg>